<?xml version="1.0" standalone="no"?><!DOCTYPE svg PUBLIC "-//W3C//DTD SVG 1.1//EN" "http://www.w3.org/Graphics/SVG/1.1/DTD/svg11.dtd"><svg t="1686901007571" class="icon" viewBox="0 0 1024 1024" version="1.1" xmlns="http://www.w3.org/2000/svg" p-id="13885" xmlns:xlink="http://www.w3.org/1999/xlink" width="200" height="200"><path d="M113.7664 1024C51.2 1024 0 972.8 0 910.2336V113.7664C0 51.2 51.2 0 113.7664 0h796.4672C972.8 0 1024 51.2 1024 113.7664v796.4672C1024 972.8 972.8 1024 910.2336 1024H113.7664z m146.0736-451.1488h66.9696c54.016 1.7664 99.0208-13.056 135.04-44.544 35.968-31.4112 53.9904-72.4736 53.9904-123.136 0-50.0224-15.3856-88.448-46.1824-115.3536-30.7712-26.88-74.0608-40.32-129.792-40.32h-146.688v516.352h66.6624v-193.024z m321.9968 113.3056v66.688c28.4416 14.4384 61.7728 21.632 100.0192 21.632 43.9552 0 79.7952-9.7024 107.4688-29.1584 27.6992-19.456 41.5232-46.0288 41.5232-79.8208 0-24.2176-7.2448-44.544-21.6832-61.0048-14.464-16.4352-42.2144-32.3328-83.3536-47.6672-32.4096-12.8768-53.3504-23.424-62.7968-31.6672-9.472-8.192-14.1824-19.6608-14.1824-34.304 0-14.9248 6.5536-26.88 19.6608-36.0192 13.1328-9.1136 30.1056-13.6704 51.0208-13.6704 34.8672 0 66.0992 8.8832 93.6704 26.6496v-62.976c-26.9312-10.88-56.0128-16.3328-87.3728-16.3328-40.4224 0-74.496 9.8304-102.144 29.4912-27.648 19.6864-41.472 45.824-41.472 78.4896 0 22.912 6.0928 42.3936 18.304 58.5216 12.2368 16.1024 38.784 32.3584 79.6672 48.8192 33.9968 12.672 56.5504 23.6288 67.6608 32.8448 11.136 9.216 16.6656 20.9408 16.6656 35.1488 0 33.3568-25.4464 50.0224-76.3392 50.0224-37.9904 0-73.4464-11.904-106.3168-35.6864zM259.84 308.1728h67.9936c78.6688 0 118.016 33.2288 118.016 99.6608 0 34.2272-10.5728 60.4928-31.6672 78.8224-21.12 18.3552-51.9936 27.4944-92.672 27.4944h-61.696v-205.9776z" fill="#13227a" p-id="13886"></path></svg>